REM DIRINDEX 1
REM DIRNAME folder01
TITLE ""
FILE "Disk3Track08.mp3" MP3
  TRACK 01 AUDIO
    TITLE "1:cjc069_1055"
    INDEX 01 00:00:00
  TRACK 02 AUDIO
    TITLE "1:cjc069_1056"
    INDEX 01 00:03:27
  TRACK 03 AUDIO
    TITLE "1:cjc069_1057"
    INDEX 01 00:11:64
  TRACK 04 AUDIO
    TITLE "1:cjc069_1058"
    INDEX 01 00:22:03
  TRACK 05 AUDIO
    TITLE "1:cjc069_1059"
    INDEX 01 00:29:34
  TRACK 06 AUDIO
    TITLE "0:"
    INDEX 01 00:39:23
